<svg width="42" height="40" viewBox="0 0 42 40" fill="none" xmlns="http://www.w3.org/2000/svg">
<path d="M0 20C0 8.95431 8.95431 0 20 0H22C33.0457 0 42 8.95431 42 20C42 31.0457 33.0457 40 22 40H20C8.9543 40 0 31.0457 0 20Z" fill="#5A7184"/>
<path d="M0 20C0 8.95431 8.95431 0 20 0H22C33.0457 0 42 8.95431 42 20C42 31.0457 33.0457 40 22 40H20C8.9543 40 0 31.0457 0 20Z" fill="#5A7184"/>
<path d="M27.6771 17.0833C28.3021 16.6146 28.8646 16.0521 29.3021 15.3958C28.7396 15.6458 28.0833 15.8333 27.4271 15.8958C28.1146 15.4896 28.6146 14.8646 28.8646 14.0833C28.2396 14.4583 27.5208 14.7396 26.8021 14.8958C26.1771 14.2396 25.3333 13.8646 24.3958 13.8646C22.5833 13.8646 21.1146 15.3333 21.1146 17.1458C21.1146 17.3958 21.1458 17.6458 21.2083 17.8958C18.4896 17.7396 16.0521 16.4271 14.4271 14.4583C14.1458 14.9271 13.9896 15.4896 13.9896 16.1146C13.9896 17.2396 14.5521 18.2396 15.4583 18.8333C14.9271 18.8021 14.3958 18.6771 13.9583 18.4271V18.4583C13.9583 20.0521 15.0833 21.3646 16.5833 21.6771C16.3333 21.7396 16.0208 21.8021 15.7396 21.8021C15.5208 21.8021 15.3333 21.7708 15.1146 21.7396C15.5208 23.0521 16.7396 23.9896 18.1771 24.0208C17.0521 24.8958 15.6458 25.4271 14.1146 25.4271C13.8333 25.4271 13.5833 25.3958 13.3333 25.3646C14.7708 26.3021 16.4896 26.8333 18.3646 26.8333C24.3958 26.8333 27.6771 21.8646 27.6771 17.5208C27.6771 17.3646 27.6771 17.2396 27.6771 17.0833Z" fill="#5A7184"/>
</svg>
